<svg width="103" height="30" viewBox="0 0 103 30" fill="none" xmlns="http://www.w3.org/2000/svg">
<path fill-rule="evenodd" clip-rule="evenodd" d="M5.27282 0.599095C3.17032 1.47816 0.868444 3.95222 0.143444 7.06066C-0.780931 10.9938 3.05251 12.6522 3.3697 12.1085C3.7322 11.4741 2.68095 11.2566 2.46345 9.20847C2.19157 6.58034 3.41501 3.62597 4.95563 2.3391C5.24563 2.09441 5.22751 2.42972 5.22751 3.04597L5.17313 16.1503C5.17313 18.9597 5.05532 19.8388 4.84688 20.7178C4.63844 21.606 4.30313 22.2041 4.54782 22.4397C4.83782 22.6935 6.07032 22.0772 6.77719 21.0803C7.58486 19.8484 8.0047 18.4026 7.98251 16.9297C8.04595 15.0628 8.03688 12.0994 8.04595 10.4138C8.04595 8.87316 8.07313 4.33284 8.01875 1.60503C8.00063 0.934407 6.14282 0.236595 5.27282 0.608157V0.599095ZM79.7031 13.7216C79.6742 14.8972 79.4027 16.0542 78.9056 17.12C78.1353 18.6788 76.5222 19.1591 75.8334 16.9207C75.4709 15.7063 75.4438 13.6672 75.7156 11.9635C75.9875 10.2416 76.7488 8.92753 78.0084 9.04535C79.2591 9.16316 79.8391 10.7672 79.7031 13.7216ZM58.7234 22.766C58.7053 25.1857 58.3247 27.3063 57.5091 27.9316C56.34 28.8016 54.7903 28.14 55.1075 26.3728C55.3884 24.8141 56.7388 23.2191 58.7325 21.2616L58.7234 22.766ZM58.4063 13.7035C58.3532 14.8817 58.0829 16.0401 57.6088 17.12C56.8384 18.6788 55.2163 19.1591 54.5366 16.9207C54.0834 15.3891 54.1922 13.4135 54.4188 12.1628C54.7178 10.5497 55.4338 9.04535 56.7116 9.04535C57.9622 9.04535 58.5784 10.4047 58.4063 13.7035ZM46.2534 13.6853C46.2305 14.8753 45.9621 16.0477 45.465 17.1291C44.6675 18.6697 43.0816 19.1591 42.3838 16.9207C41.8853 15.3166 42.0575 13.1144 42.2659 11.9363C42.5741 10.1691 43.3534 8.92753 44.5588 9.03628C45.8094 9.16316 46.4075 10.7582 46.2534 13.6853ZM101.943 15.3257C101.643 15.3257 101.498 15.6428 101.39 16.1685C100.991 17.9991 100.574 18.416 100.03 18.416C99.4322 18.416 98.8885 17.5097 98.7435 15.6972C98.6347 14.2653 98.6528 11.6372 98.7978 9.01816C98.825 8.48347 98.6709 7.95784 97.23 7.43222C96.6138 7.20566 95.7075 6.87034 95.2634 7.95784C94.366 10.0271 93.7327 12.201 93.3784 14.4285C93.3784 14.4828 93.3059 14.4919 93.2878 14.3741C93.2244 13.5857 93.0522 12.1447 93.0341 9.12691C93.0341 8.53785 92.9072 8.03941 92.2547 7.63159C91.8288 7.35972 90.5509 6.89753 90.0797 7.45035C89.69 7.90347 89.2278 9.14503 88.7475 10.6041L88.0769 12.5978L88.0859 8.17534C88.0859 7.72222 87.7778 7.56816 87.6781 7.54097C87.1464 7.37697 86.6002 7.26468 86.0469 7.20566C85.6119 7.20566 85.5031 7.45034 85.5031 7.81284C85.5031 7.85816 85.4306 12.0269 85.4306 14.945V15.3619C85.1859 16.7032 84.3975 18.5247 83.5366 18.5247C82.6756 18.5247 82.2678 17.7635 82.2678 14.2835C82.2678 12.2535 82.3313 11.3744 82.3584 9.90628C82.3766 9.05441 82.4128 8.41097 82.4128 8.26597C82.4038 7.81284 81.6244 7.58628 81.2619 7.49566C80.8994 7.41409 80.5731 7.37784 80.3284 7.39597C79.9659 7.41409 79.7213 7.64066 79.7213 7.95784V8.45628C79.3301 7.83767 78.7479 7.36357 78.0628 7.10597C76.7578 6.71628 75.3984 7.06066 74.3744 8.49253C73.4904 9.75697 72.9701 11.2396 72.87 12.7791C72.725 14.1385 72.7794 15.5069 73.0241 16.676C72.725 17.981 72.1541 18.5247 71.5378 18.5247C70.6406 18.5247 69.9972 17.0566 70.0697 14.5372C70.1241 12.8697 70.4503 11.7007 70.8128 10.015C70.9669 9.29003 70.8491 8.92753 70.5319 8.56503C70.2419 8.22972 69.6256 8.05753 68.7284 8.26597C68.0941 8.41097 67.1878 8.57409 66.3722 8.69191C66.3722 8.69191 66.4175 8.50159 66.4628 8.14816C66.6713 6.30847 64.6684 6.45347 64.025 7.04253C63.6444 7.39597 63.3906 7.80378 63.2819 8.55597C63.1278 9.73409 64.0975 10.2869 64.0975 10.2869C63.4747 12.6392 62.4308 14.8591 61.0163 16.8391V16.2047C61.0072 13.1597 61.0434 10.7672 61.0616 9.90628C61.0797 9.05441 61.1159 8.42909 61.1159 8.27503C61.1159 7.94878 60.9166 7.82191 60.5178 7.66784C60.1553 7.52284 59.7384 7.43222 59.3034 7.39597C58.7597 7.35066 58.4244 7.64066 58.4334 7.98503V8.45628C58.0405 7.83569 57.4547 7.36128 56.7659 7.10597C55.4609 6.71628 54.1016 7.06066 53.0775 8.49253C52.2252 9.76962 51.7079 11.2406 51.5731 12.77C51.4372 14.1928 51.4553 15.3982 51.6547 16.4313C51.4463 17.4553 50.8481 18.5157 50.1775 18.5157C49.3166 18.5157 48.8181 17.7635 48.8181 14.2835C48.8181 12.2535 48.8816 11.3744 48.9088 9.90628C48.9269 9.05441 48.9631 8.41097 48.9631 8.26597C48.9631 7.81284 48.1747 7.58628 47.8122 7.49566C47.4316 7.40503 47.0963 7.37784 46.8516 7.40503C46.5163 7.42316 46.2806 7.72222 46.2806 7.94878V8.45628C45.8877 7.83569 45.3019 7.36128 44.6131 7.10597C43.3081 6.71628 41.9578 7.06972 40.9247 8.49253C40.245 9.42597 39.7013 10.4591 39.4203 12.7519C39.3442 13.3652 39.3079 13.9827 39.3116 14.6007C39.0397 16.241 37.8525 18.135 36.8828 18.135C36.3119 18.135 35.7681 17.0385 35.7681 14.6913C35.7681 11.5647 35.9675 7.11503 35.9947 6.68909L37.4628 6.66191C38.0791 6.66191 38.6319 6.67097 39.4475 6.62566C39.8553 6.60753 40.245 5.13941 39.8281 4.95816C39.6378 4.8766 38.2875 4.80409 37.7438 4.79503C37.2906 4.78597 36.04 4.69534 36.04 4.69534C36.04 4.69534 36.1578 1.74097 36.185 1.43285C36.2031 1.16097 35.8678 1.03409 35.6684 0.952532C35.2211 0.772492 34.7565 0.638874 34.2819 0.553782C33.5931 0.417845 33.285 0.553782 33.2216 1.13378C33.1309 2.01284 33.0856 4.59566 33.0856 4.59566C32.5781 4.59566 30.8472 4.49597 30.3488 4.49597C29.8775 4.49597 29.37 6.50784 30.0225 6.53503L32.9225 6.61659L32.8953 12.5344V12.9603C32.415 15.4344 30.7475 16.7666 30.7475 16.7666C31.11 15.1353 30.3669 13.9119 29.0528 12.8697C28.5634 12.4891 27.6028 11.7641 26.5244 10.9666C26.5244 10.9666 27.1497 10.3503 27.7025 9.11784C28.0922 8.24785 28.1103 7.25097 27.1497 7.03347C25.5638 6.66191 24.2497 7.82191 23.86 9.07253C23.7079 9.47737 23.6698 9.91616 23.7497 10.3412C23.8296 10.7662 24.0245 11.1612 24.3131 11.4832L24.4491 11.6553C24.0866 12.3441 23.5972 13.2685 23.1803 13.9935C22.0294 15.9872 21.1503 17.5732 20.4888 17.5732C19.9631 17.5732 19.9722 15.9691 19.9722 14.4647C19.9722 13.1688 20.0628 11.2203 20.1444 9.20847C20.1716 8.53784 19.8363 8.15722 19.2744 7.81284C18.8276 7.50377 18.3215 7.29084 17.7881 7.18753C17.1538 7.18753 15.3413 7.27816 13.6194 12.2353C13.4109 12.8607 12.985 13.9935 12.985 13.9935L13.0213 8.03941C13.0213 7.89441 12.9488 7.76753 12.7766 7.67691C12.2357 7.3894 11.639 7.22245 11.0275 7.18753C10.7013 7.18753 10.5381 7.34159 10.5381 7.64066L10.4747 16.975C10.4747 17.6819 10.4928 18.5066 10.5653 18.8691C10.6378 19.2316 10.7466 19.5216 10.8916 19.6938C11.0275 19.875 11.1906 20.0019 11.4534 20.0563C11.7072 20.1107 13.0666 20.2828 13.1391 19.7663C13.2297 19.141 13.2297 18.4703 13.9456 15.96C15.0513 12.0541 16.5013 10.1419 17.19 9.47128C17.3078 9.34441 17.4438 9.34441 17.4347 9.53472L17.2353 14.356C17.0541 19.2225 17.9422 20.1197 19.2019 20.1197C20.1716 20.1197 21.54 19.1591 23.0081 16.7303L25.455 12.6522L26.8869 13.9753C28.0469 15.0628 28.4275 16.1141 28.1738 17.1019C27.9834 17.8541 27.2494 18.6425 25.9625 17.8813C25.5819 17.6547 25.4188 17.4825 25.0472 17.2378C24.8388 17.1019 24.5306 17.0566 24.3403 17.2016C23.86 17.5641 23.5791 18.0353 23.425 18.6063C23.2709 19.1591 23.8328 19.4582 24.4128 19.7119C24.9113 19.9385 25.9897 20.1378 26.6784 20.165C29.3428 20.2557 31.4816 18.8782 32.9678 15.3257C33.2397 18.3888 34.3725 20.1288 36.3391 20.1288C37.6531 20.1288 38.9763 18.425 39.5563 16.7575C39.7194 17.4372 39.9641 18.0263 40.2813 18.5338C41.8038 20.9353 44.7491 20.4097 46.2263 18.3707C46.6794 17.7453 46.7519 17.5188 46.7519 17.5188C46.7961 18.2049 47.0928 18.8504 47.5848 19.3307C48.0768 19.8109 48.7293 20.092 49.4163 20.1197C50.4131 20.1197 51.4372 19.6485 52.1622 18.0263C52.2438 18.2075 52.3434 18.3707 52.4341 18.5338C53.9566 20.9353 56.9019 20.4097 58.3791 18.3707L58.5603 18.1169L58.6056 19.3857L57.2463 20.6272C54.9625 22.7116 53.2225 24.2975 53.0956 26.1463C52.9325 28.5025 54.8447 29.3725 56.2947 29.4903C57.0199 29.5264 57.7417 29.3682 58.3853 29.0321C59.029 28.6959 59.5712 28.194 59.9559 27.5782C60.6628 26.536 61.1341 24.2885 61.0978 22.0682L61.0434 18.8419C63.2142 16.3316 64.8818 13.4272 65.9553 10.2869C65.9553 10.2869 66.7981 10.296 67.6953 10.2416C67.9853 10.2235 68.0669 10.2778 68.0125 10.4863C67.9491 10.74 66.8797 14.8725 67.8584 17.6275C68.5291 19.5125 70.0334 20.1197 70.9397 20.1197C71.9819 20.1197 72.9878 19.3313 73.5225 18.1532L73.7309 18.5338C75.2534 20.9353 78.1897 20.4097 79.6759 18.3707C80.0113 17.9175 80.2016 17.5188 80.2016 17.5188C80.5278 19.5125 82.0775 20.1288 82.9656 20.1288C83.89 20.1288 84.7781 19.7482 85.485 18.0625C85.5122 18.8057 85.5575 19.4128 85.63 19.6032C85.6753 19.721 85.9381 19.875 86.1375 19.9385C86.9803 20.2466 87.8412 20.1016 88.1675 20.0382C88.385 19.9928 88.5572 19.8116 88.5844 19.3585C88.6478 18.1532 88.6116 16.1322 88.9741 14.6369C89.5813 12.1085 90.1522 11.1297 90.4241 10.6494C90.5781 10.3775 90.7503 10.3322 90.7594 10.6222C90.7684 11.2022 90.7956 12.906 91.0313 15.1988C91.2125 16.8844 91.4481 17.8813 91.6203 18.1894C92.1369 19.0957 92.7712 19.141 93.2787 19.141C93.605 19.141 94.2938 19.0503 94.2303 18.4794C94.2031 18.1985 94.2484 16.4675 94.8647 13.9844C95.2544 12.3622 95.9069 10.9032 96.1425 10.3594C96.2331 10.1691 96.2785 10.3232 96.2785 10.3594C96.2241 11.465 96.1153 15.1172 96.5684 17.12C97.1847 19.8207 98.97 20.1288 99.5953 20.1288C100.927 20.1288 102.015 19.1138 102.378 16.4585C102.468 15.8241 102.332 15.3257 101.943 15.3257Z" fill="black"/>
</svg>
