<svg width="18" height="18" viewBox="0 0 18 18" fill="none" xmlns="http://www.w3.org/2000/svg">
<g clip-path="url(#clip0_171_3361)">
<path d="M8.99964 1.12878C10.2948 1.12863 11.5699 1.4479 12.7122 2.05831C13.8544 2.66872 14.8285 3.55142 15.5481 4.62822C16.2677 5.70503 16.7106 6.94269 16.8376 8.23157C16.9646 9.52044 16.7718 10.8207 16.2762 12.0173C15.7806 13.2138 14.9975 14.2697 13.9964 15.0913C12.9952 15.9129 11.8069 16.4749 10.5367 16.7275C9.26641 16.9801 7.95347 16.9156 6.71414 16.5396C5.47481 16.1635 4.34735 15.4876 3.43164 14.5718" stroke="black" stroke-width="1.5" stroke-linecap="round" stroke-linejoin="round"/>
<path d="M6.66992 11.331L9.00017 8.99998L9.00917 9.00898V4.34473" stroke="black" stroke-width="1.5" stroke-linecap="round" stroke-linejoin="round"/>
<path d="M5.42969 2.83203C5.89568 2.83203 6.27344 2.45427 6.27344 1.98828C6.27344 1.52229 5.89568 1.14453 5.42969 1.14453C4.9637 1.14453 4.58594 1.52229 4.58594 1.98828C4.58594 2.45427 4.9637 2.83203 5.42969 2.83203Z" fill="black"/>
<path d="M2.63672 5.21631C3.10271 5.21631 3.48047 4.83855 3.48047 4.37256C3.48047 3.90657 3.10271 3.52881 2.63672 3.52881C2.17073 3.52881 1.79297 3.90657 1.79297 4.37256C1.79297 4.83855 2.17073 5.21631 2.63672 5.21631Z" fill="black"/>
<path d="M1.22656 8.60852C1.69255 8.60852 2.07031 8.23076 2.07031 7.76477C2.07031 7.29878 1.69255 6.92102 1.22656 6.92102C0.760572 6.92102 0.382812 7.29878 0.382812 7.76477C0.382812 8.23076 0.760572 8.60852 1.22656 8.60852Z" fill="black"/>
<path d="M1.50781 12.27C1.9738 12.27 2.35156 11.8923 2.35156 11.4263C2.35156 10.9603 1.9738 10.5825 1.50781 10.5825C1.04182 10.5825 0.664062 10.9603 0.664062 11.4263C0.664062 11.8923 1.04182 12.27 1.50781 12.27Z" fill="black"/>
</g>
<defs>
<clipPath id="clip0_171_3361">
<rect width="18" height="18" fill="white"/>
</clipPath>
</defs>
</svg>
