<svg width="24" height="24" viewBox="0 0 24 24" fill="none" xmlns="http://www.w3.org/2000/svg">
<path d="M22 23.0001H15.999C15.7338 23.0001 15.4794 22.8947 15.2919 22.7072C15.1044 22.5196 14.999 22.2653 14.999 22.0001V16.5451C15.0063 16.1469 14.9341 15.7514 14.7868 15.3814C14.6395 15.0115 14.4199 14.6747 14.141 14.3906C13.862 14.1064 13.5292 13.8808 13.162 13.7267C12.7949 13.5727 12.4007 13.4933 12.0025 13.4933C11.6043 13.4933 11.2101 13.5727 10.843 13.7267C10.4758 13.8808 10.143 14.1064 9.86403 14.3906C9.58506 14.6747 9.3655 15.0115 9.21818 15.3814C9.07086 15.7514 8.99873 16.1469 9.006 16.5451V22.0001C9.006 22.2653 8.90064 22.5196 8.71311 22.7072C8.52557 22.8947 8.27122 23.0001 8.006 23.0001H2C1.73478 23.0001 1.48043 22.8947 1.29289 22.7072C1.10536 22.5196 1 22.2653 1 22.0001V11.5431C1.00009 11.4077 1.02761 11.2738 1.08088 11.1493C1.13416 11.0249 1.2121 10.9125 1.31 10.8191L11.31 1.27605C11.4961 1.09899 11.7431 1.00024 12 1.00024C12.2569 1.00024 12.5039 1.09899 12.69 1.27605L22.69 10.8191C22.7879 10.9125 22.8658 11.0249 22.9191 11.1493C22.9724 11.2738 22.9999 11.4077 23 11.5431V22.0001C23 22.2653 22.8946 22.5196 22.7071 22.7072C22.5196 22.8947 22.2652 23.0001 22 23.0001Z" fill="black"/>
</svg>
