<svg width="18" height="18" viewBox="0 0 18 18" fill="none" xmlns="http://www.w3.org/2000/svg">
<g clip-path="url(#clip0_171_3370)">
<path d="M9 3.375C9.19891 3.375 9.38968 3.29598 9.53033 3.15533C9.67098 3.01468 9.75 2.82391 9.75 2.625V1.5C9.75 1.30109 9.67098 1.11032 9.53033 0.96967C9.38968 0.829018 9.19891 0.75 9 0.75C8.80109 0.75 8.61032 0.829018 8.46967 0.96967C8.32902 1.11032 8.25 1.30109 8.25 1.5V2.625C8.25001 2.82391 8.32903 3.01467 8.46968 3.15532C8.61033 3.29597 8.80109 3.37499 9 3.375ZM3.96167 5.02259C4.03131 5.09222 4.11398 5.14746 4.20496 5.18515C4.29595 5.22283 4.39347 5.24223 4.49195 5.24223C4.59043 5.24223 4.68795 5.22283 4.77893 5.18514C4.86991 5.14746 4.95258 5.09222 5.02222 5.02258C5.09186 4.95294 5.1471 4.87027 5.18478 4.77929C5.22247 4.6883 5.24187 4.59079 5.24187 4.49231C5.24187 4.39382 5.22247 4.29631 5.18478 4.20532C5.14709 4.11434 5.09185 4.03167 5.02222 3.96203L4.22681 3.16628C4.08602 3.02643 3.89552 2.94808 3.69707 2.94841C3.49862 2.94874 3.30839 3.02772 3.16806 3.16805C3.02773 3.30837 2.94874 3.4986 2.9484 3.69706C2.94807 3.89551 3.02641 4.086 3.16626 4.2268L3.96167 5.02259ZM3.375 9C3.375 8.80109 3.29598 8.61032 3.15533 8.46967C3.01468 8.32902 2.82391 8.25 2.625 8.25H1.5C1.30109 8.25 1.11032 8.32902 0.96967 8.46967C0.829018 8.61032 0.75 8.80109 0.75 9C0.75 9.19891 0.829018 9.38968 0.96967 9.53033C1.11032 9.67098 1.30109 9.75 1.5 9.75H2.625C2.82391 9.75 3.01468 9.67098 3.15533 9.53033C3.29598 9.38968 3.375 9.19891 3.375 9ZM3.96167 12.9774L3.16626 13.7732C3.09662 13.8428 3.04139 13.9255 3.0037 14.0165C2.96601 14.1074 2.94661 14.205 2.94662 14.3034C2.94662 14.4019 2.96601 14.4994 3.0037 14.5904C3.04139 14.6814 3.09663 14.7641 3.16626 14.8337C3.2359 14.9033 3.31857 14.9586 3.40956 14.9963C3.50054 15.034 3.59806 15.0534 3.69654 15.0534C3.79502 15.0534 3.89254 15.034 3.98352 14.9963C4.07451 14.9586 4.15718 14.9033 4.22681 14.8337L5.02222 14.038C5.16286 13.8973 5.24187 13.7066 5.24187 13.5077C5.24187 13.3088 5.16286 13.118 5.02222 12.9774C4.88158 12.8368 4.69084 12.7578 4.49195 12.7578C4.29306 12.7578 4.10231 12.8368 3.96167 12.9774ZM9 14.625C8.80109 14.625 8.61033 14.704 8.46968 14.8447C8.32903 14.9853 8.25001 15.1761 8.25 15.375V16.5C8.25 16.6989 8.32902 16.8897 8.46967 17.0303C8.61032 17.171 8.80109 17.25 9 17.25C9.19891 17.25 9.38968 17.171 9.53033 17.0303C9.67098 16.8897 9.75 16.6989 9.75 16.5V15.375C9.75 15.1761 9.67098 14.9853 9.53033 14.8447C9.38968 14.704 9.19891 14.625 9 14.625ZM14.038 12.9774C13.8973 12.8368 13.7066 12.7578 13.5077 12.7578C13.3088 12.7578 13.1181 12.8368 12.9774 12.9774C12.8368 13.1181 12.7578 13.3088 12.7578 13.5077C12.7578 13.7066 12.8368 13.8973 12.9774 14.038L13.7728 14.8337C13.9137 14.9732 14.1041 15.0512 14.3023 15.0507C14.5005 15.0502 14.6905 14.9712 14.8307 14.8311C14.9709 14.6909 15.0498 14.5009 15.0503 14.3027C15.0508 14.1044 14.9728 13.9141 14.8334 13.7732L14.038 12.9774ZM16.5 8.25H15.375C15.1761 8.25 14.9853 8.32902 14.8447 8.46967C14.704 8.61032 14.625 8.80109 14.625 9C14.625 9.19891 14.704 9.38968 14.8447 9.53033C14.9853 9.67098 15.1761 9.75 15.375 9.75H16.5C16.6989 9.75 16.8897 9.67098 17.0303 9.53033C17.171 9.38968 17.25 9.19891 17.25 9C17.25 8.80109 17.171 8.61032 17.0303 8.46967C16.8897 8.32902 16.6989 8.25 16.5 8.25ZM13.5077 5.24231C13.6062 5.24246 13.7038 5.22311 13.7948 5.1854C13.8858 5.14769 13.9684 5.09234 14.0379 5.02256L14.8334 4.22681C14.9725 4.08588 15.0503 3.89561 15.0497 3.69753C15.0491 3.49946 14.9701 3.30968 14.8301 3.16962C14.69 3.02955 14.5002 2.95059 14.3022 2.94996C14.1041 2.94933 13.9138 3.02709 13.7729 3.16626L12.9775 3.96201C12.8726 4.0669 12.8012 4.20052 12.7723 4.34599C12.7433 4.49145 12.7582 4.64223 12.815 4.77925C12.8717 4.91628 12.9678 5.0334 13.0911 5.11581C13.2144 5.19822 13.3594 5.24228 13.5077 5.24231ZM9 4.5C8.10998 4.5 7.23995 4.76392 6.49993 5.25839C5.75991 5.75285 5.18314 6.45566 4.84254 7.27792C4.50195 8.10019 4.41283 9.00499 4.58647 9.87791C4.7601 10.7508 5.18868 11.5526 5.81802 12.182C6.44736 12.8113 7.24918 13.2399 8.12209 13.4135C8.99501 13.5872 9.89981 13.4981 10.7221 13.1575C11.5443 12.8169 12.2471 12.2401 12.7416 11.5001C13.2361 10.76 13.5 9.89002 13.5 9C13.4987 7.80693 13.0242 6.66309 12.1805 5.81946C11.3369 4.97583 10.1931 4.5013 9 4.5ZM9 12C8.40666 12 7.82664 11.8241 7.33329 11.4944C6.83994 11.1648 6.45542 10.6962 6.22836 10.1481C6.0013 9.59987 5.94189 8.99667 6.05764 8.41473C6.1734 7.83279 6.45912 7.29824 6.87868 6.87868C7.29824 6.45912 7.83279 6.1734 8.41473 6.05764C8.99667 5.94189 9.59987 6.0013 10.148 6.22836C10.6962 6.45542 11.1648 6.83994 11.4944 7.33329C11.8241 7.82664 12 8.40666 12 9C11.9991 9.79537 11.6827 10.5579 11.1203 11.1203C10.5579 11.6827 9.79537 11.9991 9 12Z" fill="black"/>
</g>
<defs>
<clipPath id="clip0_171_3370">
<rect width="18" height="18" fill="white"/>
</clipPath>
</defs>
</svg>
