<svg width="18" height="18" viewBox="0 0 18 18" fill="none" xmlns="http://www.w3.org/2000/svg">
<g clip-path="url(#clip0_171_3372)">
<path d="M13.501 0.75H4.50098C3.50678 0.751191 2.55364 1.14666 1.85064 1.84966C1.14764 2.55267 0.752167 3.5058 0.750977 4.5V11.2538C0.752167 12.2479 1.14764 13.2011 1.85064 13.9041C2.55364 14.6071 3.50678 15.0026 4.50098 15.0037H6.38648L8.47823 17.0377C8.61822 17.1738 8.80575 17.2499 9.00098 17.2499C9.1962 17.2499 9.38374 17.1738 9.52373 17.0377L11.614 15.0037H13.501C14.4952 15.0026 15.4483 14.6071 16.1513 13.9041C16.8543 13.2011 17.2498 12.2479 17.251 11.2538V4.5C17.2498 3.5058 16.8543 2.55267 16.1513 1.84966C15.4483 1.14666 14.4952 0.751191 13.501 0.75ZM15.751 11.2538C15.7504 11.8503 15.5131 12.4223 15.0913 12.8441C14.6695 13.2659 14.0975 13.5032 13.501 13.5037H11.299C11.1846 13.5038 11.0718 13.5299 10.9691 13.5802C10.8664 13.6305 10.7766 13.7037 10.7065 13.794L9.00098 15.453L7.29398 13.794C7.22388 13.7037 7.13405 13.6305 7.03136 13.5802C6.92866 13.5299 6.81583 13.5038 6.70148 13.5037H4.50023C3.90367 13.5032 3.33172 13.2659 2.90989 12.8441C2.48807 12.4223 2.25082 11.8503 2.25023 11.2538V4.5C2.25082 3.90345 2.48807 3.3315 2.90989 2.90967C3.33172 2.48784 3.90367 2.2506 4.50023 2.25H13.5002C14.0968 2.2506 14.6687 2.48784 15.0906 2.90967C15.5124 3.3315 15.7496 3.90345 15.7502 4.5L15.751 11.2538ZM9.00098 10.0088C8.81861 10.0086 8.64029 10.0626 8.4886 10.1638C8.3369 10.265 8.21864 10.409 8.14878 10.5774C8.07893 10.7459 8.06061 10.9313 8.09615 11.1101C8.13169 11.289 8.2195 11.4533 8.34845 11.5823C8.47741 11.7112 8.64171 11.799 8.82059 11.8346C8.99946 11.8701 9.18485 11.8518 9.35331 11.7819C9.52177 11.7121 9.66572 11.5938 9.76695 11.4421C9.86817 11.2904 9.92212 11.1121 9.92198 10.9297C9.92178 10.6853 9.8246 10.451 9.65178 10.2782C9.47896 10.1054 9.24463 10.0082 9.00023 10.008L9.00098 10.0088ZM9.00098 3.921C8.87022 3.91999 8.74066 3.94583 8.62029 3.99692C8.49993 4.048 8.39133 4.12325 8.30123 4.218C8.22231 4.30151 8.16157 4.40049 8.12284 4.50866C8.08411 4.61684 8.06824 4.73188 8.07623 4.8465L8.33648 8.49225C8.35685 8.65391 8.43552 8.80259 8.55773 8.91036C8.67994 9.01813 8.83728 9.0776 9.00023 9.0776C9.16317 9.0776 9.32051 9.01813 9.44272 8.91036C9.56493 8.80259 9.6436 8.65391 9.66398 8.49225L9.92498 4.84725C9.93305 4.73262 9.91722 4.61756 9.87849 4.50937C9.83976 4.40118 9.77897 4.30221 9.69998 4.21875C9.60999 4.12379 9.50143 4.04836 9.38105 3.99714C9.26067 3.94592 9.13105 3.92 9.00023 3.921H9.00098Z" fill="black"/>
</g>
<defs>
<clipPath id="clip0_171_3372">
<rect width="18" height="18" fill="white"/>
</clipPath>
</defs>
</svg>
